PathFileType	4	(X/Y/Z)	C:\Users\86182\Documents\cortex\Trimmed_M3_L5.trc
DataRate	CameraRate	NumFrames	NumMarkers	Units	OrigDataRate	OrigDataStartFrame	OrigNumFrames
100.00	100.00	       155	2	mm	100.00	181	       901
Frame#	Time	gripper			box			
		X1	Y1	Z1	X2	Y2	Z2	

181	1.800	274.23276	148.97301	220.11429	276.64053	147.26953	84.25121	
182	1.810	274.01474	148.92210	220.64909	276.82632	147.14975	84.83720	
183	1.820	274.13226	148.85405	221.16830	276.65753	147.13554	85.24831	
184	1.830	274.14996	148.84175	221.51891	276.63425	147.05566	85.71147	
185	1.840	274.20224	148.79901	221.87929	276.58450	146.99179	86.08906	
186	1.850	273.90906	148.84201	222.43890	276.43124	147.11186	86.43607	
187	1.860	274.16165	148.94479	222.94876	276.73288	147.19734	86.86181	
188	1.870	274.20016	148.92363	223.32553	276.79083	147.15150	87.50099	
189	1.880	274.08414	148.77757	223.64864	276.54749	147.02618	88.03484	
190	1.890	274.26550	148.93651	224.30940	276.65073	147.09123	88.31827	
191	1.900	274.28741	149.04767	224.60393	276.86844	147.20287	88.64043	
192	1.910	274.06750	148.99568	225.08833	276.78674	147.25153	89.10365	
193	1.920	274.07422	148.87578	225.52840	276.68344	147.15199	89.66580	
194	1.930	274.48422	148.86911	225.85776	276.65485	147.14360	90.15792	
195	1.940	274.13763	149.10234	226.32323	276.78464	147.10898	90.39414	
196	1.950	274.13788	148.97282	226.70087	276.76624	147.09508	90.73094	
197	1.960	274.02557	148.99146	227.12643	276.68787	147.14476	91.17636	
198	1.970	274.27646	148.95230	227.53500	276.39874	147.24539	91.55550	
199	1.980	274.39746	148.95744	227.83597	276.36960	147.19647	92.17311	
200	1.990	274.21320	149.01292	228.29346	276.58130	147.32292	92.58493	
201	2.000	274.20135	149.09372	228.90901	276.62485	147.23828	92.98953	
202	2.010	274.00592	149.03111	229.31821	276.55881	147.21271	93.35106	
203	2.020	274.26968	149.13217	229.67923	276.35602	147.28867	93.78575	
204	2.030	274.18542	149.08670	230.15334	276.52591	147.31616	94.29638	
205	2.040	274.12466	149.11952	230.73949	276.54791	147.35538	94.93848	
206	2.050	273.85461	149.13275	231.10127	276.46814	147.51353	95.15718	
207	2.060	274.18442	149.15863	231.42863	276.42157	147.35938	95.55692	
208	2.070	274.11670	149.20345	231.91423	276.28085	147.43231	96.13101	
209	2.080	274.02408	149.14388	232.39996	276.20535	147.40054	96.55641	
210	2.090	274.01141	149.24342	232.79497	276.22638	147.47223	96.90628	
211	2.100	274.12967	149.19923	233.11299	276.31937	147.67061	97.36793	
212	2.110	273.98380	149.21477	233.60835	276.09229	147.58055	97.77672	
213	2.120	274.03290	149.21463	233.97887	276.07211	147.57372	98.29983	
214	2.130	273.95523	149.20380	234.35638	276.03708	147.41971	98.57147	
215	2.140	273.96909	149.29271	234.74590	275.98071	147.48599	98.84732	
216	2.150	273.95966	149.34351	235.23634	276.19791	147.61464	99.19448	
217	2.160	273.79361	149.30331	235.67763	276.15079	147.59987	100.00765	
218	2.170	274.09204	149.24989	235.99416	275.94626	147.63560	100.30167	
219	2.180	274.03049	149.21167	236.49828	275.97699	147.60460	100.69230	
220	2.190	273.90265	149.36371	236.96527	276.22330	147.52983	100.98399	
221	2.200	273.97949	149.37573	237.33029	276.29581	147.60005	101.47375	
222	2.210	274.12204	149.29868	237.82114	276.15872	147.65060	102.06596	
223	2.220	274.19235	149.30388	238.30872	276.12711	147.70560	102.49995	
224	2.230	273.97159	149.43449	238.73157	276.13760	147.81508	102.95768	
225	2.240	274.13565	149.48151	239.22122	276.14685	147.85406	103.45863	
226	2.250	274.17059	149.39250	239.71960	276.12158	147.75053	103.74869	
227	2.260	274.10706	149.41327	240.10788	276.28427	147.86609	104.32353	
228	2.270	274.14047	149.41209	240.54031	276.07098	147.79568	104.99531	
229	2.280	274.09546	149.44199	241.03340	276.06631	147.86844	105.30571	
230	2.290	273.97528	149.58820	241.52548	276.08847	147.98116	105.52084	
231	2.300	274.01376	149.53659	241.68431	275.87366	147.92215	105.87174	
232	2.310	274.13449	149.52219	242.14816	275.72876	147.97552	106.39890	
233	2.320	273.93671	149.43231	242.56969	275.85751	147.90024	107.00581	
234	2.330	274.04944	149.49797	243.08922	275.93893	147.93901	107.21986	
235	2.340	273.98862	149.56198	243.39738	276.03976	147.94243	107.53356	
236	2.350	273.95724	149.63417	243.94318	275.58841	148.04521	108.24986	
237	2.360	273.85242	149.55695	244.27855	275.63651	148.01009	108.62681	
238	2.370	273.92947	149.42497	244.59715	275.72418	147.94368	108.80593	
239	2.380	274.10953	149.49345	245.10199	275.98969	147.93605	109.31648	
240	2.390	274.18597	149.56561	245.66426	276.10233	147.87207	109.91180	
241	2.400	274.01624	149.55157	246.03499	275.97058	148.07291	110.34185	
242	2.410	274.00888	149.59532	246.30582	275.65588	148.09814	110.73859	
243	2.420	274.23599	149.48032	246.93651	275.82748	147.95988	111.00069	
244	2.430	274.24625	149.35619	247.39023	275.94595	147.93053	111.60387	
245	2.440	274.10623	149.45081	247.79362	276.33408	147.93736	111.95853	
246	2.450	273.89822	149.46606	248.32486	276.08481	147.89105	112.36221	
247	2.460	273.97131	149.47955	248.64323	275.72644	148.07419	112.96152	
248	2.470	273.84509	149.39249	249.03452	275.76099	147.99356	113.31657	
249	2.480	274.02991	149.33861	249.36903	276.10907	147.97902	113.49963	
250	2.490	273.96530	149.34433	249.99692	276.07141	147.98454	113.90934	
251	2.500	273.85611	149.45203	250.44371	275.97815	147.81541	114.38902	
252	2.510	273.66522	149.38936	250.75049	275.79422	147.99913	115.08574	
253	2.520	273.61996	149.29062	251.03300	275.75098	148.00197	115.41180	
254	2.530	273.57452	149.31744	251.51384	275.96860	148.06755	115.53683	
255	2.540	273.86942	149.30626	251.98207	275.71198	147.87311	115.86831	
256	2.550	273.73969	149.40572	252.39980	275.66061	147.81671	116.56836	
257	2.560	273.50912	149.23553	252.81783	275.62991	147.95578	117.05663	
258	2.570	273.61679	149.27162	253.24239	275.76379	147.98120	117.53824	
259	2.580	273.70624	149.38481	253.60262	275.75604	147.87717	117.75374	
260	2.590	273.57736	149.36662	254.22882	275.49097	147.85020	118.25972	
261	2.600	273.64209	149.29182	254.72411	275.48267	147.87401	118.72391	
262	2.610	273.81665	149.31067	255.03223	275.69598	147.93423	119.23214	
263	2.620	273.78317	149.32303	255.33813	275.67618	147.93626	119.62473	
264	2.630	273.52988	149.36932	255.84001	275.86115	147.88800	119.99819	
265	2.640	273.53302	149.48756	256.47861	275.66434	147.82643	120.36466	
266	2.650	273.74048	149.30836	256.81387	275.50015	147.85187	120.84798	
267	2.660	273.78152	149.29568	257.17749	275.65536	147.89223	121.32441	
268	2.670	273.64554	149.33530	257.59412	275.76804	147.97429	121.73515	
269	2.680	273.60806	149.39850	258.08588	275.63937	148.01086	122.19491	
270	2.690	273.49701	149.47867	258.40784	275.62012	147.91426	122.64368	
271	2.700	273.72900	149.45810	258.90448	275.54141	147.95042	122.92237	
272	2.710	273.78690	149.35185	259.28036	275.49094	147.93140	123.30750	
273	2.720	273.82031	149.35704	259.66446	275.70685	147.83632	123.78068	
274	2.730	273.53448	149.39189	260.05249	275.45462	147.87079	124.18289	
275	2.740	273.65070	149.46703	260.39349	275.41916	147.96974	124.69845	
276	2.750	273.65234	149.44095	261.06235	275.43579	147.81102	125.14832	
277	2.760	273.60999	149.44234	261.39746	275.48770	147.80258	125.45016	
278	2.770	273.72766	149.42699	261.70135	275.36700	147.80898	125.79857	
279	2.780	273.76212	149.44658	262.28943	275.43552	147.88472	126.41206	
280	2.790	273.65176	149.49409	262.62784	275.41446	147.98479	126.99825	
281	2.800	273.74298	149.44704	263.05341	275.38458	147.87383	127.39521	
282	2.810	273.68359	149.58186	263.53333	275.47534	147.74269	127.56623	
283	2.820	273.84241	149.43208	264.00610	275.58789	147.88690	128.05695	
284	2.830	273.84979	149.46645	264.43314	275.50113	147.93024	128.69463	
285	2.840	273.85117	149.52827	264.79477	275.40048	147.92937	129.22501	
286	2.850	273.67935	149.55531	265.36191	275.45993	147.91611	129.53024	
287	2.860	273.71320	149.52573	265.78134	275.62497	147.86928	129.82515	
288	2.870	273.82013	149.52368	266.01047	275.56311	147.86765	130.16019	
289	2.880	273.71863	149.51532	266.62109	275.22961	148.01845	130.71817	
290	2.890	273.75476	149.54364	266.96738	275.24445	147.90196	131.12952	
291	2.900	273.70102	149.58694	267.33801	275.53210	148.02696	131.66452	
292	2.910	273.82010	149.59560	267.75833	275.47842	147.96765	131.95813	
293	2.920	273.70163	149.53891	268.19382	275.29913	147.89258	132.32774	
294	2.930	273.61673	149.56963	268.63855	275.01572	148.04973	132.74147	
295	2.940	273.62418	149.61043	269.00027	275.14816	148.07275	133.24844	
296	2.950	273.70523	149.65237	269.38690	275.24530	147.98608	133.73792	
297	2.960	273.74200	149.57973	269.95105	275.48700	147.95639	134.10515	
298	2.970	273.69379	149.46909	270.22110	275.32248	147.94489	134.35927	
299	2.980	273.64838	149.67712	270.63480	275.20990	148.04842	134.79628	
300	2.990	273.84558	149.68346	271.14847	275.11856	148.06805	135.45840	
301	3.000	273.81677	149.59314	271.52878	275.24933	148.10378	135.76538	
302	3.010	273.67581	149.70183	271.99796	275.41373	148.01654	135.99190	
303	3.020	273.99356	149.69823	272.46378	275.42719	147.90915	136.78981	
304	3.030	273.60034	149.70525	273.01111	275.29568	148.01936	137.18539	
305	3.040	273.60785	149.62221	273.40152	275.23911	148.13551	137.54964	
306	3.050	273.68201	149.67458	273.72495	275.35452	148.12500	137.78967	
307	3.060	273.70352	149.69508	274.43118	275.37823	148.05551	138.51341	
308	3.070	273.62289	149.69737	274.68933	275.30167	148.16641	139.02632	
309	3.080	273.40384	149.79355	275.05582	275.41986	148.08127	139.24747	
310	3.090	273.59457	149.71638	275.64102	275.19586	147.98242	139.66888	
311	3.100	273.42416	149.68066	275.99634	275.44446	148.10957	140.13692	
312	3.110	273.37619	149.74240	276.44983	275.35840	148.20723	140.55092	
313	3.120	273.22934	149.76761	276.81870	275.18250	148.29250	140.88802	
314	3.130	273.52176	149.71608	277.43988	274.95877	148.24278	141.48322	
315	3.140	273.29828	149.75121	277.66614	275.15216	148.15567	141.84081	
316	3.150	273.22083	149.69061	277.93628	275.30899	148.26311	142.16205	
317	3.160	272.99664	149.60071	278.45035	275.14108	148.35805	142.51509	
318	3.170	273.45294	149.79941	279.03076	275.07257	148.19464	143.06372	
319	3.180	273.19608	149.81552	279.42966	275.10248	148.28059	143.64185	
320	3.190	273.13242	149.60646	279.76144	275.24911	148.34888	143.86514	
321	3.200	273.07809	149.65810	280.34778	275.39865	148.31978	144.20482	
322	3.210	273.35892	149.66789	280.64847	274.99503	148.23381	144.80873	
323	3.220	273.30521	149.67136	281.07968	275.18558	148.25060	145.23198	
324	3.230	273.07748	149.64511	281.56381	275.45038	148.27556	145.59106	
325	3.240	273.44916	149.72897	281.94348	275.34882	148.30086	146.06639	
326	3.250	273.31485	149.70253	282.32617	275.18286	148.23080	146.47699	
327	3.260	273.30072	149.57639	282.70609	275.23157	148.30313	146.94296	
328	3.270	273.46213	149.64246	283.31210	275.33829	148.26881	147.29175	
329	3.280	273.38864	149.73404	283.73221	275.38644	148.20392	147.75441	
330	3.290	273.22345	149.72507	284.05444	275.40393	148.26967	148.17085	
331	3.300	273.27591	149.64679	284.44284	275.36084	148.34557	148.55473	
332	3.310	273.33127	149.61028	284.85590	275.27484	148.41759	149.02592	
333	3.320	273.42807	149.64558	285.37540	275.08920	148.30591	149.43813	
334	3.330	273.34036	149.73677	285.86844	275.16470	148.29512	149.76003	
335	3.340	273.27420	149.84354	286.22867	275.33612	148.25403	150.18117	
